<?xml version="1.0" encoding="UTF-8" standalone="no"?><svg xmlns="http://www.w3.org/2000/svg" xmlns:xlink="http://www.w3.org/1999/xlink" contentScriptType="application/ecmascript" contentStyleType="text/css" height="192px" preserveAspectRatio="none" style="width:388px;height:192px;" version="1.1" viewBox="0 0 388 192" width="388px" zoomAndPan="magnify"><defs><filter height="300%" id="fg6596dupjzkw" width="300%" x="-1" y="-1"><feGaussianBlur result="blurOut" stdDeviation="2.0"/><feColorMatrix in="blurOut" result="blurOut2" type="matrix" values="0 0 0 0 0 0 0 0 0 0 0 0 0 0 0 0 0 0 .4 0"/><feOffset dx="4.0" dy="4.0" in="blurOut2" result="blurOut3"/><feBlend in="SourceGraphic" in2="blurOut3" mode="normal"/></filter></defs><g><!--MD5=[3f0ef310aaa84a542276992c5216544d]
class Car--><rect fill="#FEFECE" filter="url(#fg6596dupjzkw)" height="48" id="Car" style="stroke: #A80036; stroke-width: 1.5;" width="53" x="161.5" y="8"/><ellipse cx="176.5" cy="24" fill="#ADD1B2" rx="11" ry="11" style="stroke: #A80036; stroke-width: 1.0;"/><path d="M179.4688,29.6406 Q178.8906,29.9375 178.25,30.0781 Q177.6094,30.2344 176.9063,30.2344 Q174.4063,30.2344 173.0781,28.5938 Q171.7656,26.9375 171.7656,23.8125 Q171.7656,20.6875 173.0781,19.0313 Q174.4063,17.375 176.9063,17.375 Q177.6094,17.375 178.25,17.5313 Q178.9063,17.6875 179.4688,17.9844 L179.4688,20.7031 Q178.8438,20.125 178.25,19.8594 Q177.6563,19.5781 177.0313,19.5781 Q175.6875,19.5781 175,20.6563 Q174.3125,21.7188 174.3125,23.8125 Q174.3125,25.9063 175,26.9844 Q175.6875,28.0469 177.0313,28.0469 Q177.6563,28.0469 178.25,27.7813 Q178.8438,27.5 179.4688,26.9219 L179.4688,29.6406 Z "/><text fill="#000000" font-family="sans-serif" font-size="12" lengthAdjust="spacingAndGlyphs" textLength="21" x="190.5" y="28.1543">Car</text><line style="stroke: #A80036; stroke-width: 1.5;" x1="162.5" x2="213.5" y1="40" y2="40"/><line style="stroke: #A80036; stroke-width: 1.5;" x1="162.5" x2="213.5" y1="48" y2="48"/><!--MD5=[eee9d396a8aca12c6c152931e8dc1ab6]
class Driver--><rect fill="#FEFECE" filter="url(#fg6596dupjzkw)" height="48" id="Driver" style="stroke: #A80036; stroke-width: 1.5;" width="68" x="6" y="8"/><ellipse cx="21" cy="24" fill="#ADD1B2" rx="11" ry="11" style="stroke: #A80036; stroke-width: 1.0;"/><path d="M23.9688,29.6406 Q23.3906,29.9375 22.75,30.0781 Q22.1094,30.2344 21.4063,30.2344 Q18.9063,30.2344 17.5781,28.5938 Q16.2656,26.9375 16.2656,23.8125 Q16.2656,20.6875 17.5781,19.0313 Q18.9063,17.375 21.4063,17.375 Q22.1094,17.375 22.75,17.5313 Q23.4063,17.6875 23.9688,17.9844 L23.9688,20.7031 Q23.3438,20.125 22.75,19.8594 Q22.1563,19.5781 21.5313,19.5781 Q20.1875,19.5781 19.5,20.6563 Q18.8125,21.7188 18.8125,23.8125 Q18.8125,25.9063 19.5,26.9844 Q20.1875,28.0469 21.5313,28.0469 Q22.1563,28.0469 22.75,27.7813 Q23.3438,27.5 23.9688,26.9219 L23.9688,29.6406 Z "/><text fill="#000000" font-family="sans-serif" font-size="12" lengthAdjust="spacingAndGlyphs" textLength="36" x="35" y="28.1543">Driver</text><line style="stroke: #A80036; stroke-width: 1.5;" x1="7" x2="73" y1="40" y2="40"/><line style="stroke: #A80036; stroke-width: 1.5;" x1="7" x2="73" y1="48" y2="48"/><!--MD5=[63ed6a0a2dfd613875880437a5e2b06e]
class Wheel--><rect fill="#FEFECE" filter="url(#fg6596dupjzkw)" height="48" id="Wheel" style="stroke: #A80036; stroke-width: 1.5;" width="70" x="307" y="8"/><ellipse cx="322" cy="24" fill="#ADD1B2" rx="11" ry="11" style="stroke: #A80036; stroke-width: 1.0;"/><path d="M324.9688,29.6406 Q324.3906,29.9375 323.75,30.0781 Q323.1094,30.2344 322.4063,30.2344 Q319.9063,30.2344 318.5781,28.5938 Q317.2656,26.9375 317.2656,23.8125 Q317.2656,20.6875 318.5781,19.0313 Q319.9063,17.375 322.4063,17.375 Q323.1094,17.375 323.75,17.5313 Q324.4063,17.6875 324.9688,17.9844 L324.9688,20.7031 Q324.3438,20.125 323.75,19.8594 Q323.1563,19.5781 322.5313,19.5781 Q321.1875,19.5781 320.5,20.6563 Q319.8125,21.7188 319.8125,23.8125 Q319.8125,25.9063 320.5,26.9844 Q321.1875,28.0469 322.5313,28.0469 Q323.1563,28.0469 323.75,27.7813 Q324.3438,27.5 324.9688,26.9219 L324.9688,29.6406 Z "/><text fill="#000000" font-family="sans-serif" font-size="12" lengthAdjust="spacingAndGlyphs" textLength="38" x="336" y="28.1543">Wheel</text><line style="stroke: #A80036; stroke-width: 1.5;" x1="308" x2="376" y1="40" y2="40"/><line style="stroke: #A80036; stroke-width: 1.5;" x1="308" x2="376" y1="48" y2="48"/><!--MD5=[09ce52be0ee7de43c61b6e2d59bf108b]
class Person--><rect fill="#FEFECE" filter="url(#fg6596dupjzkw)" height="48" id="Person" style="stroke: #A80036; stroke-width: 1.5;" width="76" x="150" y="133"/><ellipse cx="165" cy="149" fill="#ADD1B2" rx="11" ry="11" style="stroke: #A80036; stroke-width: 1.0;"/><path d="M167.9688,154.6406 Q167.3906,154.9375 166.75,155.0781 Q166.1094,155.2344 165.4063,155.2344 Q162.9063,155.2344 161.5781,153.5938 Q160.2656,151.9375 160.2656,148.8125 Q160.2656,145.6875 161.5781,144.0313 Q162.9063,142.375 165.4063,142.375 Q166.1094,142.375 166.75,142.5313 Q167.4063,142.6875 167.9688,142.9844 L167.9688,145.7031 Q167.3438,145.125 166.75,144.8594 Q166.1563,144.5781 165.5313,144.5781 Q164.1875,144.5781 163.5,145.6563 Q162.8125,146.7188 162.8125,148.8125 Q162.8125,150.9063 163.5,151.9844 Q164.1875,153.0469 165.5313,153.0469 Q166.1563,153.0469 166.75,152.7813 Q167.3438,152.5 167.9688,151.9219 L167.9688,154.6406 Z "/><text fill="#000000" font-family="sans-serif" font-size="12" lengthAdjust="spacingAndGlyphs" textLength="44" x="179" y="153.1543">Person</text><line style="stroke: #A80036; stroke-width: 1.5;" x1="151" x2="225" y1="165" y2="165"/><line style="stroke: #A80036; stroke-width: 1.5;" x1="151" x2="225" y1="173" y2="173"/><!--MD5=[85884a73f707af3ae230d559cad4fc2c]
link Driver to Car--><path d="M74.3262,32 C100.7977,32 136.8858,32 161.2412,32 " fill="none" id="Driver-Car" style="stroke: #A80036; stroke-width: 1.0;"/><text fill="#000000" font-family="sans-serif" font-size="13" lengthAdjust="spacingAndGlyphs" textLength="38" x="92.25" y="25.0669">drives</text><polygon fill="#000000" points="133.25,19.0664,139.25,22.0664,133.25,25.0664,133.25,19.0664" style="stroke: #000000; stroke-width: 1.0;"/><!--MD5=[6190aadcc963d15c02367c0199cc5452]
reverse link Car to Wheel--><path d="M227.985,32 C252.4004,32 283.3309,32 306.8141,32 " fill="none" id="Car&lt;-Wheel" style="stroke: #A80036; stroke-width: 1.0;"/><polygon fill="#A80036" points="214.8248,32,220.8248,36,226.8248,32,220.8248,28,214.8248,32" style="stroke: #A80036; stroke-width: 1.0;"/><text fill="#000000" font-family="sans-serif" font-size="13" lengthAdjust="spacingAndGlyphs" textLength="43" x="232.75" y="25.0669">have 4</text><polygon fill="#000000" points="278.75,19.0664,284.75,22.0664,278.75,25.0664,278.75,19.0664" style="stroke: #000000; stroke-width: 1.0;"/><!--MD5=[2800f28b8e2a8d078fc1fa2e2aa6715e]
link Car to Person--><path d="M188,56.1013 C188,78.2359 188,110.8615 188,132.9727 " fill="none" id="Car-Person" style="stroke: #A80036; stroke-width: 1.0;"/><polygon fill="#000000" points="200.5,97,203.5,91,206.5,97,200.5,97" style="stroke: #000000; stroke-width: 1.0;"/><text fill="#000000" font-family="sans-serif" font-size="13" lengthAdjust="spacingAndGlyphs" textLength="32" x="189" y="112.0669">owns</text><!--MD5=[c4c29612dcd89e743d1a00929ce057de]
@startuml
class Car

Driver - Car : drives >
Car *- Wheel : have 4 >
Car - - Person : < owns

@enduml

PlantUML version 1.2020.06(Sun Apr 05 12:38:32 GMT 2020)
(GPL source distribution)
Java Runtime: OpenJDK Runtime Environment
JVM: OpenJDK 64-Bit Server VM
Java Version: 14-ea+33
Operating System: Linux
Default Encoding: UTF-8
Language: en
Country: US
--></g></svg>